<?xml version="1.0" encoding="UTF-8" standalone="no"?> <svg width="64" height="64" viewBox="0 0 64 64" fill="none" xmlns="http://www.w3.org/2000/svg">
<path d="M61 18C60.7348 18 60.4804 18.1054 60.2929 18.2929C60.1054 18.4804 60 18.7348 60 19V24H58.928L54.309 16H61C61.2652 16 61.5196 15.8946 61.7071 15.7071C61.8946 15.5196 62 15.2652 62 15C62 14.7348 61.8946 14.4804 61.7071 14.2929C61.5196 14.1054 61.2652 14 61 14H55V11C55 10.7348 54.8946 10.4804 54.7071 10.2929C54.5196 10.1054 54.2652 10 54 10H50C49.7348 10 49.4804 10.1054 49.2929 10.2929C49.1054 10.4804 49 10.7348 49 11V14H39V11C39 10.7348 38.8946 10.4804 38.7071 10.2929C38.5196 10.1054 38.2652 10 38 10H37V7C37 5.67392 36.4732 4.40215 35.5355 3.46447C34.5979 2.52678 33.3261 2 32 2C30.6739 2 29.4021 2.52678 28.4645 3.46447C27.5268 4.40215 27 5.67392 27 7V10H26C25.7348 10 25.4804 10.1054 25.2929 10.2929C25.1054 10.4804 25 10.7348 25 11V14H15V11C15 10.7348 14.8946 10.4804 14.7071 10.2929C14.5196 10.1054 14.2652 10 14 10H10C9.73478 10 9.48043 10.1054 9.29289 10.2929C9.10536 10.4804 9 10.7348 9 11V14H3C2.73478 14 2.48043 14.1054 2.29289 14.2929C2.10536 14.4804 2 14.7348 2 15V25C2 25.2652 2.10536 25.5196 2.29289 25.7071C2.48043 25.8946 2.73478 26 3 26H9V31H3C2.73478 31 2.48043 31.1054 2.29289 31.2929C2.10536 31.4804 2 31.7348 2 32V42C2 42.2652 2.10536 42.5196 2.29289 42.7071C2.48043 42.8946 2.73478 43 3 43H13V56H11V46C11 45.7348 10.8946 45.4804 10.7071 45.2929C10.5196 45.1054 10.2652 45 10 45C9.73478 45 9.48043 45.1054 9.29289 45.2929C9.10536 45.4804 9 45.7348 9 46V56H8C7.73478 56 7.48043 56.1054 7.29289 56.2929C7.10536 56.4804 7 56.7348 7 57V61C7 61.2652 7.10536 61.5196 7.29289 61.7071C7.48043 61.8946 7.73478 62 8 62H16C16.2652 62 16.5196 61.8946 16.7071 61.7071C16.8946 61.5196 17 61.2652 17 61V57C17 56.7348 16.8946 56.4804 16.7071 56.2929C16.5196 56.1054 16.2652 56 16 56H15V43H39.423C39.5985 43 39.771 42.9538 39.923 42.866C40.075 42.7782 40.2012 42.652 40.289 42.5C40.3768 42.348 40.423 42.1755 40.423 42C40.423 41.8245 40.3768 41.652 40.289 41.5L36.737 35.348C36.6718 35.2334 36.5846 35.1327 36.4804 35.0519C36.3761 34.9711 36.257 34.9117 36.1297 34.8772C36.0024 34.8426 35.8696 34.8336 35.7388 34.8506C35.608 34.8676 35.4819 34.9103 35.3677 34.9762C35.2535 35.0422 35.1534 35.1301 35.0733 35.2348C34.9932 35.3396 34.9346 35.4592 34.9009 35.5867C34.8672 35.7142 34.859 35.8471 34.8769 35.9777C34.8948 36.1084 34.9383 36.2342 35.005 36.348L37.69 41H32.928L28.309 33H40L42.846 37.93C42.7162 38.1733 42.6155 38.4311 42.546 38.698L38.22 56H36C35.7348 56 35.4804 56.1054 35.2929 56.2929C35.1054 56.4804 35 56.7348 35 57V61C35 61.2652 35.1054 61.5196 35.2929 61.7071C35.4804 61.8946 35.7348 62 36 62H56C56.2652 62 56.5196 61.8946 56.7071 61.7071C56.8946 61.5196 57 61.2652 57 61C57 60.7348 56.8946 60.4804 56.7071 60.2929C56.5196 60.1054 56.2652 60 56 60H37V58H56C56.2652 58 56.5196 57.8946 56.7071 57.7071C56.8946 57.5196 57 57.2652 57 57C57 56.7348 56.8946 56.4804 56.7071 56.2929C56.5196 56.1054 56.2652 56 56 56H55V43H61C61.2652 43 61.5196 42.8946 61.7071 42.7071C61.8946 42.5196 62 42.2652 62 42V32C62 31.7348 61.8946 31.4804 61.7071 31.2929C61.5196 31.1054 61.2652 31 61 31H55V26H61C61.2652 26 61.5196 25.8946 61.7071 25.7071C61.8946 25.5196 62 25.2652 62 25V19C62 18.7348 61.8946 18.4804 61.7071 18.2929C61.5196 18.1054 61.2652 18 61 18ZM15 60H9V58H15V60ZM56.618 24H52L47.382 16H52L56.618 24ZM54 33L58.618 41H54L49.382 33H54ZM15 31V26H26C26.2652 26 26.5196 25.8946 26.7071 25.7071C26.8946 25.5196 27 25.2652 27 25C27 24.7348 26.8946 24.4804 26.7071 24.2929C26.5196 24.1054 26.2652 24 26 24H24L19.382 16H24L29.485 25.5C29.5728 25.652 29.699 25.7783 29.851 25.866C30.003 25.9538 30.1755 26 30.351 26H49V31H15ZM12 33L16.619 41H12L7.382 33H12ZM14.309 33H19.072L23.691 41H18.929L14.309 33ZM10 24L5.382 16H10L14.619 24H10ZM16.929 24L12.309 16H17.072L21.691 24H16.929ZM44.929 24L40.31 16H45.073L49.692 24H44.929ZM38 16L42.618 24H38L33.382 16H38ZM31.072 16L35.691 24H30.928L26.309 16H31.072ZM51 12H53V14H51V12ZM29 7C29 6.20435 29.3161 5.44129 29.8787 4.87868C30.4413 4.31607 31.2044 4 32 4C32.7956 4 33.5587 4.31607 34.1213 4.87868C34.6839 5.44129 35 6.20435 35 7V10H29V7ZM27 12H37V14H27V12ZM11 12H13V14H11V12ZM4 17.608L7.691 24H4V17.608ZM11 26H13V31H11V26ZM4 33H5.072L9.691 41H4V33ZM30.619 41H26L21.382 33H26L30.619 41ZM47.072 33L51.691 41H50.031L49.455 38.7C49.3228 38.1722 49.0715 37.6816 48.7204 37.2659C48.3692 36.8503 47.9276 36.5205 47.4293 36.302C46.931 36.0834 46.3892 35.9818 45.8456 36.0051C45.3019 36.0283 44.7708 36.1757 44.293 36.436L42.31 33H47.072ZM50.719 52H41.281L41.781 50H50.219L50.719 52ZM42.281 48L42.781 46H49.219L49.719 48H42.281ZM46 38C46.3485 37.9997 46.6871 38.116 46.9618 38.3304C47.2365 38.5447 47.4316 38.8449 47.516 39.183L47.716 40H44.28L44.48 39.183C44.5645 38.8442 44.7602 38.5436 45.0358 38.3291C45.3113 38.1147 45.6508 37.9988 46 38V38ZM43.78 42H48.22L48.72 44H43.28L43.78 42ZM40.28 56L40.78 54H51.219L51.719 56H40.28ZM53 52.878L50.531 43H53V52.878ZM60 39.392L56.309 33H60V39.392ZM53 31H51V26H53V31Z" fill="black"/>
</svg>
